<svg width="562" height="150" viewBox="0 0 562 150" fill="none" xmlns="http://www.w3.org/2000/svg">
<path d="M159.377 38.4L125.177 148H106.377L79.9766 61L53.5766 148H34.7766L0.376563 38.4H18.9766L44.1766 130.4L71.3766 38.4H89.9766L116.577 130.6L141.377 38.4H159.377ZM225.239 149.8C214.972 149.8 205.639 147.467 197.239 142.8C188.972 138.133 182.439 131.533 177.639 123C172.972 114.333 170.639 104.333 170.639 93C170.639 81.8 173.039 71.9333 177.839 63.4C182.772 54.7333 189.439 48.1333 197.839 43.6C206.239 38.9333 215.639 36.6 226.039 36.6C236.439 36.6 245.839 38.9333 254.239 43.6C262.639 48.1333 269.239 54.6667 274.039 63.2C278.972 71.7333 281.439 81.6667 281.439 93C281.439 104.333 278.906 114.333 273.839 123C268.906 131.533 262.172 138.133 253.639 142.8C245.106 147.467 235.639 149.8 225.239 149.8ZM225.239 133.8C231.772 133.8 237.906 132.267 243.639 129.2C249.372 126.133 253.972 121.533 257.439 115.4C261.039 109.267 262.839 101.8 262.839 93C262.839 84.2 261.106 76.7333 257.639 70.6C254.172 64.4667 249.639 59.9333 244.039 57C238.439 53.9333 232.372 52.4 225.839 52.4C219.172 52.4 213.039 53.9333 207.439 57C201.972 59.9333 197.572 64.4667 194.239 70.6C190.906 76.7333 189.239 84.2 189.239 93C189.239 101.933 190.839 109.467 194.039 115.6C197.372 121.733 201.772 126.333 207.239 129.4C212.706 132.333 218.706 133.8 225.239 133.8ZM323.569 56.2C326.769 49.9333 331.302 45.0667 337.169 41.6C343.169 38.1333 350.435 36.4 358.969 36.4V55.2H354.169C333.769 55.2 323.569 66.2667 323.569 88.4V148H305.369V38.4H323.569V56.2ZM441.178 148L398.178 99.6V148H379.978V-1.90735e-06H398.178V87L440.378 38.4H465.778L414.178 93L465.978 148H441.178ZM521.708 149.8C513.308 149.8 505.774 148.4 499.108 145.6C492.441 142.667 487.174 138.667 483.308 133.6C479.441 128.4 477.308 122.467 476.908 115.8H495.708C496.241 121.267 498.774 125.733 503.308 129.2C507.974 132.667 514.041 134.4 521.508 134.4C528.441 134.4 533.908 132.867 537.908 129.8C541.908 126.733 543.908 122.867 543.908 118.2C543.908 113.4 541.774 109.867 537.508 107.6C533.241 105.2 526.641 102.867 517.708 100.6C509.574 98.4667 502.908 96.3333 497.708 94.2C492.641 91.9333 488.241 88.6667 484.508 84.4C480.908 80 479.108 74.2667 479.108 67.2C479.108 61.6 480.774 56.4667 484.108 51.8C487.441 47.1333 492.174 43.4667 498.308 40.8C504.441 38 511.441 36.6 519.308 36.6C531.441 36.6 541.241 39.6667 548.708 45.8C556.174 51.9333 560.174 60.3333 560.708 71H542.508C542.108 65.2667 539.774 60.6667 535.508 57.2C531.374 53.7333 525.774 52 518.708 52C512.174 52 506.974 53.4 503.108 56.2C499.241 59 497.308 62.6667 497.308 67.2C497.308 70.8 498.441 73.8 500.708 76.2C503.108 78.4667 506.041 80.3333 509.508 81.8C513.108 83.1333 518.041 84.6667 524.308 86.4C532.174 88.5333 538.574 90.6667 543.508 92.8C548.441 94.8 552.641 97.8667 556.108 102C559.708 106.133 561.574 111.533 561.708 118.2C561.708 124.2 560.041 129.6 556.708 134.4C553.374 139.2 548.641 143 542.508 145.8C536.508 148.467 529.574 149.8 521.708 149.8Z" fill="#F7F7F7"/>
</svg>
